# File exported by Houdini 16.5.405 (www.sidefx.com)
# 32 points
# 64 vertices
# 16 primitives
# Bounds: [-1.69000006, 0, -1.69000006] to [1.69000006, 2.6400001, 1.69000006]
g 
v 0.660000026 0 0
v 0.609760523 0 -0.252571076
v 0.466690481 0 -0.466690481
v 0.252571076 0 -0.609760523
v -2.88495166e-08 0 -0.660000026
v -0.252571136 0 -0.609760523
v -0.466690481 0 -0.466690481
v -0.609760582 0 -0.252570987
v -0.660000026 0 5.76990331e-08
v -0.609760523 0 0.252571076
v -0.466690421 0 0.46669057
v -0.252570868 0 0.609760642
v 7.87042165e-09 0 0.660000026
v 0.252571195 0 0.609760463
v 0.46669063 0 0.466690332
v 0.609760523 0 0.252571076
v 1.69000006 2.6400001 0
v 1.56135643 2.6400001 -0.646735072
v 1.19501042 2.6400001 -1.19501042
v 0.646735013 2.6400001 -1.56135643
v -7.38722505e-08 2.6400001 -1.69000006
v -0.646735191 2.6400001 -1.56135643
v -1.19501042 2.6400001 -1.19501042
v -1.56135666 2.6400001 -0.646734774
v -1.69000006 2.6400001 1.47744501e-07
v -1.56135643 2.6400001 0.646735013
v -1.1950103 2.6400001 1.19501066
v -0.646734536 2.6400001 1.56135666
v 2.0153049e-08 2.6400001 1.69000006
v 0.646735311 2.6400001 1.56135631
v 1.1950109 2.6400001 1.19501007
v 1.56135654 2.6400001 0.646735013
vt 0 0 0
vt 0.0625 0 0
vt 0.0625 1 0
vt 0 1 0
vt 0.0625 0 0
vt 0.125 0 0
vt 0.125 1 0
vt 0.0625 1 0
vt 0.125 0 0
vt 0.1875 0 0
vt 0.1875 1 0
vt 0.125 1 0
vt 0.1875 0 0
vt 0.25 0 0
vt 0.25 1 0
vt 0.1875 1 0
vt 0.25 0 0
vt 0.3125 0 0
vt 0.3125 1 0
vt 0.25 1 0
vt 0.3125 0 0
vt 0.375 0 0
vt 0.375 1 0
vt 0.3125 1 0
vt 0.375 0 0
vt 0.4375 0 0
vt 0.4375 1 0
vt 0.375 1 0
vt 0.4375 0 0
vt 0.5 0 0
vt 0.5 1 0
vt 0.4375 1 0
vt 0.5 0 0
vt 0.5625 0 0
vt 0.5625 1 0
vt 0.5 1 0
vt 0.5625 0 0
vt 0.625 0 0
vt 0.625 1 0
vt 0.5625 1 0
vt 0.625 0 0
vt 0.6875 0 0
vt 0.6875 1 0
vt 0.625 1 0
vt 0.6875 0 0
vt 0.75 0 0
vt 0.75 1 0
vt 0.6875 1 0
vt 0.75 0 0
vt 0.8125 0 0
vt 0.8125 1 0
vt 0.75 1 0
vt 0.8125 0 0
vt 0.875 0 0
vt 0.875 1 0
vt 0.8125 1 0
vt 0.875 0 0
vt 0.9375 0 0
vt 0.9375 1 0
vt 0.875 1 0
vt 0.9375 0 0
vt 1 0 0
vt 1 1 0
vt 0.9375 1 0
vn 0.916011989 -0.35738343 -0.182206079
vn 0.860692382 -0.363467783 -0.35651049
vn 0.860692322 -0.363467783 -0.35651058
vn 0.916011989 -0.35738346 -0.182206154
vn 0.860692382 -0.363467783 -0.35651049
vn 0.658745468 -0.363467753 -0.658745468
vn 0.658745408 -0.363467753 -0.658745468
vn 0.860692322 -0.363467783 -0.35651058
vn 0.658745468 -0.363467753 -0.658745468
vn 0.35651046 -0.363467723 -0.860692382
vn 0.35651055 -0.363467783 -0.860692441
vn 0.658745408 -0.363467753 -0.658745468
vn 0.35651046 -0.363467723 -0.860692382
vn 0 -0.363467753 -0.93160677
vn 0 -0.363467813 -0.931606829
vn 0.35651055 -0.363467783 -0.860692441
vn 0 -0.363467753 -0.93160677
vn -0.35651055 -0.363467753 -0.860692322
vn -0.35651058 -0.363467783 -0.860692441
vn 0 -0.363467813 -0.931606829
vn -0.35651055 -0.363467753 -0.860692322
vn -0.658745527 -0.363467783 -0.658745468
vn -0.658745468 -0.363467783 -0.658745527
vn -0.35651058 -0.363467783 -0.860692441
vn -0.658745527 -0.363467783 -0.658745468
vn -0.860692382 -0.363467723 -0.356510371
vn -0.860692441 -0.363467813 -0.356510401
vn -0.658745468 -0.363467783 -0.658745527
vn -0.860692382 -0.363467723 -0.356510371
vn -0.93160677 -0.363467753 1.2923158e-07
vn -0.93160677 -0.363467753 1.61670272e-07
vn -0.860692441 -0.363467813 -0.356510401
vn -0.93160677 -0.363467753 1.2923158e-07
vn -0.860692441 -0.363467753 0.35651055
vn -0.860692441 -0.363467783 0.35651052
vn -0.93160677 -0.363467753 1.61670272e-07
vn -0.860692441 -0.363467753 0.35651055
vn -0.658745348 -0.363467723 0.658745527
vn -0.658745408 -0.363467813 0.658745587
vn -0.860692441 -0.363467783 0.35651052
vn -0.658745348 -0.363467723 0.658745527
vn -0.356510252 -0.363467753 0.860692501
vn -0.356510311 -0.363467783 0.860692501
vn -0.658745408 -0.363467813 0.658745587
vn -0.356510252 -0.363467753 0.860692501
vn 2.21539892e-07 -0.363467783 0.931606829
vn 1.41461513e-07 -0.363467813 0.931606829
vn -0.356510311 -0.363467783 0.860692501
vn 2.21539892e-07 -0.363467783 0.931606829
vn 0.356510699 -0.363467783 0.860692322
vn 0.356510639 -0.363467783 0.860692322
vn 1.41461513e-07 -0.363467813 0.931606829
vn 0.356510699 -0.363467783 0.860692322
vn 0.658745587 -0.363467813 0.658745289
vn 0.658745527 -0.363467783 0.658745348
vn 0.356510639 -0.363467783 0.860692322
vn 0.658745587 -0.363467813 0.658745289
vn 0.860692501 -0.363467783 0.356510371
vn 0.860692441 -0.363467783 0.356510341
vn 0.658745527 -0.363467783 0.658745348
vn 0.860692501 -0.363467783 0.356510371
vn 0.916012049 -0.35738343 0.182206005
vn 0.916011989 -0.35738343 0.18220593
vn 0.860692441 -0.363467783 0.356510341
g 
f 1/1/1 2/2/2 18/3/3 17/4/4
f 2/5/5 3/6/6 19/7/7 18/8/8
f 3/9/9 4/10/10 20/11/11 19/12/12
f 4/13/13 5/14/14 21/15/15 20/16/16
f 5/17/17 6/18/18 22/19/19 21/20/20
f 6/21/21 7/22/22 23/23/23 22/24/24
f 7/25/25 8/26/26 24/27/27 23/28/28
f 8/29/29 9/30/30 25/31/31 24/32/32
f 9/33/33 10/34/34 26/35/35 25/36/36
f 10/37/37 11/38/38 27/39/39 26/40/40
f 11/41/41 12/42/42 28/43/43 27/44/44
f 12/45/45 13/46/46 29/47/47 28/48/48
f 13/49/49 14/50/50 30/51/51 29/52/52
f 14/53/53 15/54/54 31/55/55 30/56/56
f 15/57/57 16/58/58 32/59/59 31/60/60
f 16/61/61 1/62/62 17/63/63 32/64/64
